<svg version="1.1" id="Layer_1" xmlns="http://www.w3.org/2000/svg" xmlns:xlink="http://www.w3.org/1999/xlink" x="0px" y="0px"
	 width="100%" viewBox="0 0 1000 1000" enable-background="new 0 0 1000 1000" xml:space="preserve">
<path fill="#2E6A4E" opacity="1.000000" stroke="none" 
	d="
M1.000005,545.000000 
	C1.000000,515.979126 1.000000,486.958221 1.414745,457.461975 
	C2.202508,456.306152 2.811001,455.659363 2.914005,454.940186 
	C5.300111,438.280121 7.075441,421.511169 10.082958,404.965759 
	C17.422522,364.588348 30.330170,325.913849 47.704548,288.771790 
	C59.576435,263.392670 72.969849,238.769302 89.626678,216.204025 
	C103.161186,197.868591 117.237663,179.853867 132.201538,162.679520 
	C142.983200,150.305206 155.072189,138.906830 167.563583,128.225693 
	C183.998688,114.172356 200.945801,100.617165 218.498184,87.995659 
	C242.338181,70.852875 268.194641,57.038738 294.980896,44.943932 
	C321.731049,32.865444 349.282410,23.147230 377.711548,15.947574 
	C402.874023,9.575196 428.346771,4.907223 454.269226,2.903322 
	C455.222839,2.829606 456.091644,1.659269 457.000000,0.999994 
	C486.020905,1.000000 515.041809,1.000000 544.538208,1.414727 
	C545.694458,2.202424 546.341614,2.810778 547.061035,2.913820 
	C563.721252,5.300047 580.490417,7.075759 597.036011,10.083118 
	C637.413513,17.422201 676.087219,30.332003 713.230652,47.702858 
	C738.611145,59.572536 763.230713,72.972275 785.797546,89.626305 
	C804.133606,103.158043 822.148865,117.232262 839.322266,132.195374 
	C851.696533,142.977066 863.091736,155.069550 873.772522,167.561584 
	C887.824524,183.996628 901.379150,200.942841 914.000916,218.493927 
	C931.145142,242.333649 944.959900,268.190338 957.054565,294.977173 
	C969.132935,321.727936 978.852173,349.279724 986.051941,377.709473 
	C992.424438,402.872620 997.092102,428.346130 999.096680,454.269226 
	C999.170410,455.222839 1000.340698,456.091644 1001.000000,457.000000 
	C1001.000000,486.020905 1001.000000,515.041809 1000.585205,544.538147 
	C999.797546,545.694336 999.189026,546.341370 999.085999,547.060852 
	C996.699768,563.721252 994.923889,580.490479 991.916626,597.036316 
	C984.577881,637.413940 971.669067,676.087952 954.297058,713.231018 
	C942.426636,738.611145 929.028931,763.231934 912.372681,785.797729 
	C898.839355,804.132446 884.767456,822.149170 869.804504,839.322571 
	C859.022888,851.697021 846.929749,863.091675 834.437622,873.772583 
	C818.002686,887.824707 801.057251,901.380188 783.505981,914.001587 
	C759.665771,931.145325 733.808777,944.960083 707.022095,957.055481 
	C680.271545,969.134583 652.718872,978.851440 624.289551,986.052368 
	C599.127014,992.425964 573.653870,997.093872 547.730896,999.096802 
	C546.777283,999.170532 545.908386,1000.340759 545.000000,1001.000000 
	C515.979126,1001.000000 486.958221,1001.000000 457.461792,1000.585327 
	C456.305542,999.797729 455.658539,999.189514 454.939178,999.086548 
	C438.279480,996.700378 421.513092,994.914978 404.965454,991.919128 
	C364.744904,984.637451 326.219086,971.774048 289.213593,954.527710 
	C263.672272,942.624268 238.898407,929.142822 216.203140,912.375977 
	C197.873047,898.834045 179.854263,884.763733 162.680054,869.799988 
	C150.305725,859.018311 138.907715,846.928894 128.226517,834.437500 
	C114.173248,818.002441 100.618019,801.055542 87.996452,783.503357 
	C70.853462,759.663391 57.039555,733.806702 44.943943,707.020874 
	C32.864563,680.270813 23.149155,652.718140 15.948091,624.289551 
	C9.574325,599.126953 4.907978,573.653259 2.903712,547.730347 
	C2.829993,546.776855 1.659420,545.908203 1.000005,545.000000 
M484.050629,412.417511 
	C485.370483,424.000183 486.305908,435.643372 488.116089,447.148895 
	C490.002258,459.137604 491.996155,471.283264 498.494415,481.851227 
	C500.362183,484.888733 503.712311,488.669678 506.743713,489.024261 
	C515.594360,490.059601 524.628235,489.625885 533.587646,489.527161 
	C534.906250,489.512634 536.490051,488.458679 537.477661,487.430725 
	C546.521790,478.016937 552.957275,466.446808 553.564392,453.875458 
	C554.566223,433.133057 552.921509,412.259247 552.292725,391.443848 
	C552.094116,384.869171 551.577637,378.304108 551.218567,371.945984 
	C569.637390,371.945984 587.460693,371.944916 605.283997,371.946320 
	C616.893250,371.947235 621.269592,374.572754 623.696045,385.848450 
	C625.924438,396.203735 626.925171,406.879791 627.742188,417.470428 
	C629.410034,439.089447 635.946533,458.955505 648.932129,476.301727 
	C664.566895,497.186859 686.650940,506.511749 711.943420,506.432281 
	C735.805847,506.357300 759.283325,501.767151 781.689270,493.017822 
	C785.194946,491.648956 788.886658,489.754120 791.373474,487.067047 
	C793.755066,484.493591 795.600098,480.688812 796.039917,477.217285 
	C796.787964,471.312592 796.630920,465.210724 796.099365,459.259155 
	C795.806274,455.977539 794.648804,452.335052 792.712524,449.720673 
	C786.955994,441.948395 778.160217,438.311829 769.691711,434.400085 
	C768.778503,433.978241 767.427979,434.261200 766.340210,434.495361 
	C750.745728,437.852264 735.219116,441.562805 719.549133,444.513733 
	C712.336487,445.871918 705.084229,443.763580 700.785217,437.625885 
	C696.968994,432.177399 693.044861,425.764282 692.301880,419.410522 
	C690.512024,404.106049 690.554443,388.587067 689.886780,373.153351 
	C689.875732,372.897736 690.229553,372.626373 690.344849,372.460571 
	C702.505432,371.304138 714.627747,370.526611 726.637939,368.913849 
	C741.518860,366.915558 756.279724,364.088593 769.490662,356.299408 
	C776.903198,351.928986 782.809204,346.225647 784.458801,337.324127 
	C784.804749,335.457153 785.086914,333.018890 784.203003,331.576569 
	C779.434570,323.795959 774.831787,315.808838 769.126343,308.736298 
	C763.063354,301.220490 754.955872,298.254578 744.706482,299.437927 
	C725.684631,301.634125 706.530151,302.706787 687.420715,304.109253 
	C676.882080,304.882690 672.889832,300.987579 672.867859,290.245605 
	C672.836853,275.080902 672.874634,259.916046 672.854004,244.751297 
	C672.832764,229.123444 668.188965,215.673050 655.089844,205.943848 
	C641.739502,196.028076 631.073364,197.000061 619.980103,209.359619 
	C613.869568,216.167557 611.269409,224.329422 611.167664,233.188339 
	C610.917114,255.015915 611.012512,276.847473 610.969727,298.677429 
	C610.966248,300.451111 610.969299,302.224762 610.969299,304.343994 
	C587.413147,306.165039 564.266113,307.009186 542.533569,315.332947 
	C540.115540,309.666962 538.303650,304.455261 535.749878,299.636658 
	C530.310913,289.373871 524.729248,286.648773 513.321045,288.139954 
	C510.356201,288.527496 507.395233,289.109772 504.505310,289.876984 
	C491.359222,293.367249 480.619659,307.063354 480.992920,320.589874 
	C481.829193,350.896729 482.976929,381.194977 484.050629,412.417511 
M395.573425,431.971832 
	C390.145966,428.404419 384.419403,425.212097 379.362396,421.180054 
	C372.102325,415.391418 365.226410,409.103577 358.389343,402.808563 
	C354.351410,399.090820 355.875671,393.923431 356.585205,389.576569 
	C356.859955,387.893494 360.731537,386.444366 363.201660,385.527466 
	C387.889313,376.363556 412.388855,366.781036 434.934296,352.942017 
	C444.476349,347.084839 453.875061,340.784668 459.240540,330.539185 
	C460.844208,327.476929 461.946991,322.684692 460.667267,319.874573 
	C457.670319,313.293640 453.624329,306.995605 449.019928,301.390717 
	C443.253052,294.370850 435.696777,290.366913 426.059875,292.779388 
	C418.640259,294.636780 411.062805,296.005035 403.814758,298.381500 
	C376.194946,307.437469 350.228912,320.321259 324.366455,333.402985 
	C316.410950,337.427063 308.508423,341.555878 300.114716,345.877075 
	C299.706573,341.085480 299.453003,337.106049 299.016815,333.146698 
	C295.680023,302.858856 292.932770,272.486298 288.657593,242.330688 
	C286.786743,229.134262 281.998505,216.314163 278.076996,203.462952 
	C276.360870,197.839127 272.029785,195.049255 265.791473,195.301956 
	C260.807953,195.503815 255.785416,195.286118 250.806808,194.906036 
	C246.167953,194.551895 242.069717,195.694916 238.925720,198.977692 
	C229.602051,208.712784 220.858124,218.774460 223.552948,233.879150 
	C223.988922,236.322723 223.885849,238.861740 224.042358,241.356003 
	C226.577744,281.761841 229.164902,322.164520 231.628769,362.574677 
	C232.733795,380.698212 234.341797,398.835083 234.382141,416.968872 
	C234.438126,442.148987 234.317123,467.293335 238.033859,492.260529 
	C240.320801,507.623108 243.389786,522.830261 251.619232,536.360596 
	C256.650452,544.632507 263.402313,550.821716 273.448303,552.250366 
	C274.950104,552.464050 277.092102,552.445007 278.047119,551.565857 
	C286.470215,543.811707 295.119263,536.221436 302.734009,527.716553 
	C305.296997,524.854004 306.119568,519.461975 305.956482,515.295837 
	C305.201111,495.999603 303.808044,476.728607 302.678192,457.446503 
	C302.556885,455.376465 302.661835,453.293152 302.661835,450.150269 
	C304.989044,451.854736 306.279388,452.799988 307.569916,453.744965 
	C330.399475,470.462067 353.069183,487.403717 376.118134,503.812653 
	C390.127380,513.786072 405.598541,519.035278 423.210052,515.302124 
	C432.646454,513.301819 440.317505,508.760468 445.635590,500.778870 
	C449.037689,495.672882 452.342712,490.235565 450.850311,483.594910 
	C448.341217,472.430237 441.996796,463.217621 435.418823,454.173126 
	C434.700012,453.184692 433.250183,452.698853 432.094299,452.061707 
	C420.139191,445.471802 408.174774,438.898773 395.573425,431.971832 
M541.396729,769.087219 
	C551.154724,775.132996 560.643005,781.682007 570.740723,787.093933 
	C582.673523,793.489441 595.201111,792.656372 607.329651,787.150574 
	C616.536865,782.970947 624.059387,770.716492 621.657532,763.043884 
	C617.738281,750.524414 612.503479,738.746643 599.112305,733.089722 
	C594.534058,731.155640 590.252075,728.478516 585.943481,725.955261 
	C571.856018,717.705200 557.606384,709.634644 546.266602,697.574951 
	C538.627747,689.451111 540.164551,683.549744 550.444153,679.769653 
	C572.500916,671.658691 594.382324,663.127747 614.032654,649.908752 
	C620.556946,645.519775 626.856934,640.707275 630.028503,633.180603 
	C630.983521,630.914062 631.792236,627.479736 630.756775,625.679749 
	C627.054565,619.243835 623.009460,612.867004 618.169861,607.266541 
	C614.220642,602.696472 608.394287,600.875061 602.197815,602.419373 
	C593.333496,604.628540 584.114319,606.102722 575.783630,609.630798 
	C554.032104,618.842773 532.662231,628.959290 511.183838,638.810303 
	C505.862579,641.250854 500.707581,644.053894 495.011292,646.924622 
	C494.649689,643.300537 494.387878,640.657532 494.122040,638.014832 
	C491.738525,614.323914 489.921814,590.556580 486.743164,566.972778 
	C485.021576,554.199158 481.234680,541.669434 477.873657,529.165649 
	C476.158936,522.786499 471.863556,518.977600 464.530273,519.825989 
	C461.912689,520.128845 459.207672,519.724060 456.545502,519.585449 
	C444.774841,518.972229 429.903046,533.644653 430.265930,545.689697 
	C430.476593,552.682495 430.942474,559.668701 431.360779,566.653931 
	C433.900269,609.063049 436.672607,651.459778 438.909088,693.884766 
	C439.837708,711.500854 439.437073,729.182861 440.002716,746.823303 
	C440.576141,764.705383 442.696838,782.415710 449.323334,799.206482 
	C453.133026,808.859802 458.415863,817.588867 469.410858,820.512695 
	C471.595551,821.093689 474.934601,821.270142 476.377075,820.037109 
	C483.314392,814.107239 489.956543,807.799072 496.345947,801.275085 
	C499.472015,798.083130 500.266235,793.885498 499.740448,789.211670 
	C498.567535,778.785522 497.667572,768.315979 497.087891,757.840210 
	C496.688141,750.615906 497.011200,743.351501 497.011200,735.385864 
	C512.056702,746.828613 526.429077,757.759521 541.396729,769.087219 
M289.820068,602.317566 
	C285.593536,606.792725 280.950287,610.946350 277.208435,615.795532 
	C253.879272,646.028687 243.615860,680.524414 245.240417,718.458557 
	C246.035049,737.013306 250.648224,754.726318 261.995178,769.956177 
	C275.052216,787.481201 292.872314,793.961243 314.205292,791.359131 
	C333.179291,789.044678 349.372864,780.560730 363.622833,768.146301 
	C368.538177,763.864014 373.148407,759.231445 377.909393,754.748230 
	C378.311462,761.627808 378.540344,768.747620 379.184296,775.829590 
	C380.214844,787.163147 382.041901,798.366455 388.376678,808.166077 
	C392.808777,815.022400 399.306824,818.367981 407.517609,817.411926 
	C415.479004,816.484924 419.592224,810.812683 420.822479,803.757996 
	C422.269226,795.462219 423.117310,786.901062 422.859894,778.496826 
	C421.758698,742.540039 420.177277,706.597717 418.722931,670.652039 
	C418.132843,656.067627 416.685852,641.506042 408.783569,628.825256 
	C401.934540,617.834595 394.773712,606.880066 386.459412,596.995789 
	C372.093445,579.917236 353.267303,574.514648 331.522430,579.330261 
	C315.628876,582.850098 302.446075,591.358459 289.820068,602.317566 
M724.048462,602.604797 
	C714.986267,603.639771 705.666443,603.663208 696.908752,605.893616 
	C667.121338,613.479858 649.307312,634.478149 637.799927,661.570374 
	C626.128662,689.048279 624.592346,717.731628 629.473572,746.880981 
	C632.690430,766.090942 639.440125,783.928162 652.807495,798.488159 
	C671.609131,818.967346 694.651306,827.648621 722.186584,820.873718 
	C744.828430,815.302795 760.983215,800.664734 772.615601,781.145264 
	C790.205872,751.628174 793.761108,719.299744 788.303162,686.071777 
	C785.487915,668.932800 780.420166,652.120789 775.620056,635.376099 
	C774.118164,630.136597 770.818115,625.039429 767.214722,620.844849 
	C756.194702,608.016846 741.351379,603.338501 724.048462,602.604797 
M403.790741,270.057800 
	C432.586121,270.672424 461.381042,271.732910 490.177032,271.763153 
	C513.988953,271.788147 537.826538,270.544342 560.857178,263.601135 
	C565.491028,262.204132 570.167542,259.704681 573.804077,256.540771 
	C579.018738,252.003906 579.780762,225.825684 574.844299,220.908920 
	C565.828674,211.929184 554.712585,204.833649 542.220703,204.124161 
	C514.660217,202.558868 486.984985,202.602295 459.359772,202.724243 
	C439.361938,202.812500 419.400940,204.713440 400.055206,210.113068 
	C393.622559,211.908508 387.413666,215.160080 381.746582,218.759964 
	C379.028564,220.486526 376.529968,224.412674 376.123932,227.620178 
	C373.709564,246.692062 381.380615,264.011139 403.790741,270.057800 
M718.743469,587.178223 
	C729.205566,585.766724 739.524414,583.601990 748.518372,577.859192 
	C751.332458,576.062317 754.462952,572.609619 754.852417,569.581055 
	C755.907837,561.374023 755.727295,552.986633 755.660400,544.673828 
	C755.646057,542.896667 754.434204,540.729858 753.103760,539.427063 
	C744.063171,530.573975 733.021118,523.495300 720.768127,523.083435 
	C682.331238,521.791504 643.773987,521.488464 605.578918,527.179077 
	C593.158691,529.029602 580.683838,531.995544 568.907898,536.296448 
	C555.494080,541.195496 552.923706,546.976990 553.907227,560.377014 
	C555.334106,579.819763 571.262024,593.534668 588.271545,593.040039 
	C613.570801,592.304321 638.918823,593.076172 664.205139,592.121155 
	C682.131592,591.444092 699.990417,588.974548 718.743469,587.178223 
z"/>
<path fill="none" opacity="1.000000" stroke="none" 
	d="
M456.531342,0.999994 
	C456.091644,1.659269 455.222839,2.829606 454.269226,2.903322 
	C428.346771,4.907223 402.874023,9.575196 377.711548,15.947574 
	C349.282410,23.147230 321.731049,32.865444 294.980896,44.943932 
	C268.194641,57.038738 242.338181,70.852875 218.498184,87.995659 
	C200.945801,100.617165 183.998688,114.172356 167.563583,128.225693 
	C155.072189,138.906830 142.983200,150.305206 132.201538,162.679520 
	C117.237663,179.853867 103.161186,197.868591 89.626678,216.204025 
	C72.969849,238.769302 59.576435,263.392670 47.704548,288.771790 
	C30.330170,325.913849 17.422522,364.588348 10.082958,404.965759 
	C7.075441,421.511169 5.300111,438.280121 2.914005,454.940186 
	C2.811001,455.659363 2.202508,456.306152 1.414745,456.993347 
	C1.000000,305.072906 1.000000,153.145828 1.000000,1.000000 
	C152.687485,1.000000 304.375092,1.000000 456.531342,0.999994 
z"/>
<path fill="none" opacity="1.000000" stroke="none" 
	d="
M1001.000000,456.531342 
	C1000.340698,456.091644 999.170410,455.222839 999.096680,454.269226 
	C997.092102,428.346130 992.424438,402.872620 986.051941,377.709473 
	C978.852173,349.279724 969.132935,321.727936 957.054565,294.977173 
	C944.959900,268.190338 931.145142,242.333649 914.000916,218.493927 
	C901.379150,200.942841 887.824524,183.996628 873.772522,167.561584 
	C863.091736,155.069550 851.696533,142.977066 839.322266,132.195374 
	C822.148865,117.232262 804.133606,103.158043 785.797546,89.626305 
	C763.230713,72.972275 738.611145,59.572536 713.230652,47.702858 
	C676.087219,30.332003 637.413513,17.422201 597.036011,10.083118 
	C580.490417,7.075759 563.721252,5.300047 547.061035,2.913820 
	C546.341614,2.810778 545.694458,2.202424 545.006836,1.414727 
	C696.927063,1.000000 848.854126,1.000000 1001.000000,1.000000 
	C1001.000000,152.687485 1001.000000,304.375092 1001.000000,456.531342 
z"/>
<path fill="none" opacity="1.000000" stroke="none" 
	d="
M1.000005,545.468628 
	C1.659420,545.908203 2.829993,546.776855 2.903712,547.730347 
	C4.907978,573.653259 9.574325,599.126953 15.948091,624.289551 
	C23.149155,652.718140 32.864563,680.270813 44.943943,707.020874 
	C57.039555,733.806702 70.853462,759.663391 87.996452,783.503357 
	C100.618019,801.055542 114.173248,818.002441 128.226517,834.437500 
	C138.907715,846.928894 150.305725,859.018311 162.680054,869.799988 
	C179.854263,884.763733 197.873047,898.834045 216.203140,912.375977 
	C238.898407,929.142822 263.672272,942.624268 289.213593,954.527710 
	C326.219086,971.774048 364.744904,984.637451 404.965454,991.919128 
	C421.513092,994.914978 438.279480,996.700378 454.939178,999.086548 
	C455.658539,999.189514 456.305542,999.797729 456.993134,1000.585327 
	C305.072906,1001.000000 153.145828,1001.000000 1.000000,1001.000000 
	C1.000000,849.312500 1.000000,697.624939 1.000005,545.468628 
z"/>
<path fill="none" opacity="1.000000" stroke="none" 
	d="
M545.468628,1001.000000 
	C545.908386,1000.340759 546.777283,999.170532 547.730896,999.096802 
	C573.653870,997.093872 599.127014,992.425964 624.289551,986.052368 
	C652.718872,978.851440 680.271545,969.134583 707.022095,957.055481 
	C733.808777,944.960083 759.665771,931.145325 783.505981,914.001587 
	C801.057251,901.380188 818.002686,887.824707 834.437622,873.772583 
	C846.929749,863.091675 859.022888,851.697021 869.804504,839.322571 
	C884.767456,822.149170 898.839355,804.132446 912.372681,785.797729 
	C929.028931,763.231934 942.426636,738.611145 954.297058,713.231018 
	C971.669067,676.087952 984.577881,637.413940 991.916626,597.036316 
	C994.923889,580.490479 996.699768,563.721252 999.085999,547.060852 
	C999.189026,546.341370 999.797546,545.694336 1000.585205,545.006836 
	C1001.000000,696.927063 1001.000000,848.854187 1001.000000,1001.000000 
	C849.312500,1001.000000 697.624939,1001.000000 545.468628,1001.000000 
z"/>
<path fill="#EFEDE8" opacity="1.000000" stroke="none" 
	d="
M484.024261,411.957123 
	C482.976929,381.194977 481.829193,350.896729 480.992920,320.589874 
	C480.619659,307.063354 491.359222,293.367249 504.505310,289.876984 
	C507.395233,289.109772 510.356201,288.527496 513.321045,288.139954 
	C524.729248,286.648773 530.310913,289.373871 535.749878,299.636658 
	C538.303650,304.455261 540.115540,309.666962 542.533569,315.332947 
	C564.266113,307.009186 587.413147,306.165039 610.969299,304.343994 
	C610.969299,302.224762 610.966248,300.451111 610.969727,298.677429 
	C611.012512,276.847473 610.917114,255.015915 611.167664,233.188339 
	C611.269409,224.329422 613.869568,216.167557 619.980103,209.359619 
	C631.073364,197.000061 641.739502,196.028076 655.089844,205.943848 
	C668.188965,215.673050 672.832764,229.123444 672.854004,244.751297 
	C672.874634,259.916046 672.836853,275.080902 672.867859,290.245605 
	C672.889832,300.987579 676.882080,304.882690 687.420715,304.109253 
	C706.530151,302.706787 725.684631,301.634125 744.706482,299.437927 
	C754.955872,298.254578 763.063354,301.220490 769.126343,308.736298 
	C774.831787,315.808838 779.434570,323.795959 784.203003,331.576569 
	C785.086914,333.018890 784.804749,335.457153 784.458801,337.324127 
	C782.809204,346.225647 776.903198,351.928986 769.490662,356.299408 
	C756.279724,364.088593 741.518860,366.915558 726.637939,368.913849 
	C714.627747,370.526611 702.505432,371.304138 690.344849,372.460571 
	C690.229553,372.626373 689.875732,372.897736 689.886780,373.153351 
	C690.554443,388.587067 690.512024,404.106049 692.301880,419.410522 
	C693.044861,425.764282 696.968994,432.177399 700.785217,437.625885 
	C705.084229,443.763580 712.336487,445.871918 719.549133,444.513733 
	C735.219116,441.562805 750.745728,437.852264 766.340210,434.495361 
	C767.427979,434.261200 768.778503,433.978241 769.691711,434.400085 
	C778.160217,438.311829 786.955994,441.948395 792.712524,449.720673 
	C794.648804,452.335052 795.806274,455.977539 796.099365,459.259155 
	C796.630920,465.210724 796.787964,471.312592 796.039917,477.217285 
	C795.600098,480.688812 793.755066,484.493591 791.373474,487.067047 
	C788.886658,489.754120 785.194946,491.648956 781.689270,493.017822 
	C759.283325,501.767151 735.805847,506.357300 711.943420,506.432281 
	C686.650940,506.511749 664.566895,497.186859 648.932129,476.301727 
	C635.946533,458.955505 629.410034,439.089447 627.742188,417.470428 
	C626.925171,406.879791 625.924438,396.203735 623.696045,385.848450 
	C621.269592,374.572754 616.893250,371.947235 605.283997,371.946320 
	C587.460693,371.944916 569.637390,371.945984 551.218567,371.945984 
	C551.577637,378.304108 552.094116,384.869171 552.292725,391.443848 
	C552.921509,412.259247 554.566223,433.133057 553.564392,453.875458 
	C552.957275,466.446808 546.521790,478.016937 537.477661,487.430725 
	C536.490051,488.458679 534.906250,489.512634 533.587646,489.527161 
	C524.628235,489.625885 515.594360,490.059601 506.743713,489.024261 
	C503.712311,488.669678 500.362183,484.888733 498.494415,481.851227 
	C491.996155,471.283264 490.002258,459.137604 488.116089,447.148895 
	C486.305908,435.643372 485.370483,424.000183 484.024261,411.957123 
z"/>
<path fill="#EFEDE8" opacity="1.000000" stroke="none" 
	d="
M395.893188,432.146423 
	C408.174774,438.898773 420.139191,445.471802 432.094299,452.061707 
	C433.250183,452.698853 434.700012,453.184692 435.418823,454.173126 
	C441.996796,463.217621 448.341217,472.430237 450.850311,483.594910 
	C452.342712,490.235565 449.037689,495.672882 445.635590,500.778870 
	C440.317505,508.760468 432.646454,513.301819 423.210052,515.302124 
	C405.598541,519.035278 390.127380,513.786072 376.118134,503.812653 
	C353.069183,487.403717 330.399475,470.462067 307.569916,453.744965 
	C306.279388,452.799988 304.989044,451.854736 302.661835,450.150269 
	C302.661835,453.293152 302.556885,455.376465 302.678192,457.446503 
	C303.808044,476.728607 305.201111,495.999603 305.956482,515.295837 
	C306.119568,519.461975 305.296997,524.854004 302.734009,527.716553 
	C295.119263,536.221436 286.470215,543.811707 278.047119,551.565857 
	C277.092102,552.445007 274.950104,552.464050 273.448303,552.250366 
	C263.402313,550.821716 256.650452,544.632507 251.619232,536.360596 
	C243.389786,522.830261 240.320801,507.623108 238.033859,492.260529 
	C234.317123,467.293335 234.438126,442.148987 234.382141,416.968872 
	C234.341797,398.835083 232.733795,380.698212 231.628769,362.574677 
	C229.164902,322.164520 226.577744,281.761841 224.042358,241.356003 
	C223.885849,238.861740 223.988922,236.322723 223.552948,233.879150 
	C220.858124,218.774460 229.602051,208.712784 238.925720,198.977692 
	C242.069717,195.694916 246.167953,194.551895 250.806808,194.906036 
	C255.785416,195.286118 260.807953,195.503815 265.791473,195.301956 
	C272.029785,195.049255 276.360870,197.839127 278.076996,203.462952 
	C281.998505,216.314163 286.786743,229.134262 288.657593,242.330688 
	C292.932770,272.486298 295.680023,302.858856 299.016815,333.146698 
	C299.453003,337.106049 299.706573,341.085480 300.114716,345.877075 
	C308.508423,341.555878 316.410950,337.427063 324.366455,333.402985 
	C350.228912,320.321259 376.194946,307.437469 403.814758,298.381500 
	C411.062805,296.005035 418.640259,294.636780 426.059875,292.779388 
	C435.696777,290.366913 443.253052,294.370850 449.019928,301.390717 
	C453.624329,306.995605 457.670319,313.293640 460.667267,319.874573 
	C461.946991,322.684692 460.844208,327.476929 459.240540,330.539185 
	C453.875061,340.784668 444.476349,347.084839 434.934296,352.942017 
	C412.388855,366.781036 387.889313,376.363556 363.201660,385.527466 
	C360.731537,386.444366 356.859955,387.893494 356.585205,389.576569 
	C355.875671,393.923431 354.351410,399.090820 358.389343,402.808563 
	C365.226410,409.103577 372.102325,415.391418 379.362396,421.180054 
	C384.419403,425.212097 390.145966,428.404419 395.893188,432.146423 
z"/>
<path fill="#EFEDE8" opacity="1.000000" stroke="none" 
	d="
M541.099121,768.888794 
	C526.429077,757.759521 512.056702,746.828613 497.011200,735.385864 
	C497.011200,743.351501 496.688141,750.615906 497.087891,757.840210 
	C497.667572,768.315979 498.567535,778.785522 499.740448,789.211670 
	C500.266235,793.885498 499.472015,798.083130 496.345947,801.275085 
	C489.956543,807.799072 483.314392,814.107239 476.377075,820.037109 
	C474.934601,821.270142 471.595551,821.093689 469.410858,820.512695 
	C458.415863,817.588867 453.133026,808.859802 449.323334,799.206482 
	C442.696838,782.415710 440.576141,764.705383 440.002716,746.823303 
	C439.437073,729.182861 439.837708,711.500854 438.909088,693.884766 
	C436.672607,651.459778 433.900269,609.063049 431.360779,566.653931 
	C430.942474,559.668701 430.476593,552.682495 430.265930,545.689697 
	C429.903046,533.644653 444.774841,518.972229 456.545502,519.585449 
	C459.207672,519.724060 461.912689,520.128845 464.530273,519.825989 
	C471.863556,518.977600 476.158936,522.786499 477.873657,529.165649 
	C481.234680,541.669434 485.021576,554.199158 486.743164,566.972778 
	C489.921814,590.556580 491.738525,614.323914 494.122040,638.014832 
	C494.387878,640.657532 494.649689,643.300537 495.011292,646.924622 
	C500.707581,644.053894 505.862579,641.250854 511.183838,638.810303 
	C532.662231,628.959290 554.032104,618.842773 575.783630,609.630798 
	C584.114319,606.102722 593.333496,604.628540 602.197815,602.419373 
	C608.394287,600.875061 614.220642,602.696472 618.169861,607.266541 
	C623.009460,612.867004 627.054565,619.243835 630.756775,625.679749 
	C631.792236,627.479736 630.983521,630.914062 630.028503,633.180603 
	C626.856934,640.707275 620.556946,645.519775 614.032654,649.908752 
	C594.382324,663.127747 572.500916,671.658691 550.444153,679.769653 
	C540.164551,683.549744 538.627747,689.451111 546.266602,697.574951 
	C557.606384,709.634644 571.856018,717.705200 585.943481,725.955261 
	C590.252075,728.478516 594.534058,731.155640 599.112305,733.089722 
	C612.503479,738.746643 617.738281,750.524414 621.657532,763.043884 
	C624.059387,770.716492 616.536865,782.970947 607.329651,787.150574 
	C595.201111,792.656372 582.673523,793.489441 570.740723,787.093933 
	C560.643005,781.682007 551.154724,775.132996 541.099121,768.888794 
z"/>
<path fill="#EFEDE8" opacity="1.000000" stroke="none" 
	d="
M290.091797,602.088501 
	C302.446075,591.358459 315.628876,582.850098 331.522430,579.330261 
	C353.267303,574.514648 372.093445,579.917236 386.459412,596.995789 
	C394.773712,606.880066 401.934540,617.834595 408.783569,628.825256 
	C416.685852,641.506042 418.132843,656.067627 418.722931,670.652039 
	C420.177277,706.597717 421.758698,742.540039 422.859894,778.496826 
	C423.117310,786.901062 422.269226,795.462219 420.822479,803.757996 
	C419.592224,810.812683 415.479004,816.484924 407.517609,817.411926 
	C399.306824,818.367981 392.808777,815.022400 388.376678,808.166077 
	C382.041901,798.366455 380.214844,787.163147 379.184296,775.829590 
	C378.540344,768.747620 378.311462,761.627808 377.909393,754.748230 
	C373.148407,759.231445 368.538177,763.864014 363.622833,768.146301 
	C349.372864,780.560730 333.179291,789.044678 314.205292,791.359131 
	C292.872314,793.961243 275.052216,787.481201 261.995178,769.956177 
	C250.648224,754.726318 246.035049,737.013306 245.240417,718.458557 
	C243.615860,680.524414 253.879272,646.028687 277.208435,615.795532 
	C280.950287,610.946350 285.593536,606.792725 290.091797,602.088501 
M326.537903,699.036499 
	C332.806335,703.106995 338.969116,702.688782 344.482727,697.882690 
	C356.181122,687.685486 364.420105,675.062561 368.680817,660.153381 
	C370.443756,653.984375 370.642914,647.299805 364.544708,642.860413 
	C360.044220,639.584167 352.233826,641.288513 346.083191,646.270142 
	C345.953796,646.374939 345.822174,646.478027 345.701385,646.592285 
	C334.667755,657.027893 326.785095,669.363464 323.508759,684.314575 
	C322.429169,689.241211 322.194946,694.301147 326.537903,699.036499 
z"/>
<path fill="#EFEDE8" opacity="1.000000" stroke="none" 
	d="
M724.493591,602.630310 
	C741.351379,603.338501 756.194702,608.016846 767.214722,620.844849 
	C770.818115,625.039429 774.118164,630.136597 775.620056,635.376099 
	C780.420166,652.120789 785.487915,668.932800 788.303162,686.071777 
	C793.761108,719.299744 790.205872,751.628174 772.615601,781.145264 
	C760.983215,800.664734 744.828430,815.302795 722.186584,820.873718 
	C694.651306,827.648621 671.609131,818.967346 652.807495,798.488159 
	C639.440125,783.928162 632.690430,766.090942 629.473572,746.880981 
	C624.592346,717.731628 626.128662,689.048279 637.799927,661.570374 
	C649.307312,634.478149 667.121338,613.479858 696.908752,605.893616 
	C705.666443,603.663208 714.986267,603.639771 724.493591,602.630310 
M743.042847,724.567810 
	C744.777588,712.577087 744.839478,700.577759 743.888428,688.159058 
	C742.750488,688.653809 742.225586,688.740051 741.903809,689.042358 
	C728.903198,701.257019 722.921509,716.898865 720.453735,734.069336 
	C719.823547,738.454224 721.021729,742.861206 726.257874,744.404358 
	C730.907288,745.774597 736.276306,743.811707 738.489197,739.093628 
	C740.508179,734.788940 741.498962,730.002014 743.042847,724.567810 
z"/>
<path fill="#EEEDE8" opacity="1.000000" stroke="none" 
	d="
M403.358398,270.038513 
	C381.380615,264.011139 373.709564,246.692062 376.123932,227.620178 
	C376.529968,224.412674 379.028564,220.486526 381.746582,218.759964 
	C387.413666,215.160080 393.622559,211.908508 400.055206,210.113068 
	C419.400940,204.713440 439.361938,202.812500 459.359772,202.724243 
	C486.984985,202.602295 514.660217,202.558868 542.220703,204.124161 
	C554.712585,204.833649 565.828674,211.929184 574.844299,220.908920 
	C579.780762,225.825684 579.018738,252.003906 573.804077,256.540771 
	C570.167542,259.704681 565.491028,262.204132 560.857178,263.601135 
	C537.826538,270.544342 513.988953,271.788147 490.177032,271.763153 
	C461.381042,271.732910 432.586121,270.672424 403.358398,270.038513 
z"/>
<path fill="#EFEDE8" opacity="1.000000" stroke="none" 
	d="
M718.311401,587.241699 
	C699.990417,588.974548 682.131592,591.444092 664.205139,592.121155 
	C638.918823,593.076172 613.570801,592.304321 588.271545,593.040039 
	C571.262024,593.534668 555.334106,579.819763 553.907227,560.377014 
	C552.923706,546.976990 555.494080,541.195496 568.907898,536.296448 
	C580.683838,531.995544 593.158691,529.029602 605.578918,527.179077 
	C643.773987,521.488464 682.331238,521.791504 720.768127,523.083435 
	C733.021118,523.495300 744.063171,530.573975 753.103760,539.427063 
	C754.434204,540.729858 755.646057,542.896667 755.660400,544.673828 
	C755.727295,552.986633 755.907837,561.374023 754.852417,569.581055 
	C754.462952,572.609619 751.332458,576.062317 748.518372,577.859192 
	C739.524414,583.601990 729.205566,585.766724 718.311401,587.241699 
z"/>
<path fill="#316C50" opacity="1.000000" stroke="none" 
	d="
M326.258362,698.776123 
	C322.194946,694.301147 322.429169,689.241211 323.508759,684.314575 
	C326.785095,669.363464 334.667755,657.027893 345.701385,646.592285 
	C345.822174,646.478027 345.953796,646.374939 346.083191,646.270142 
	C352.233826,641.288513 360.044220,639.584167 364.544708,642.860413 
	C370.642914,647.299805 370.443756,653.984375 368.680817,660.153381 
	C364.420105,675.062561 356.181122,687.685486 344.482727,697.882690 
	C338.969116,702.688782 332.806335,703.106995 326.258362,698.776123 
z"/>
<path fill="#336D52" opacity="1.000000" stroke="none" 
	d="
M742.992920,724.997681 
	C741.498962,730.002014 740.508179,734.788940 738.489197,739.093628 
	C736.276306,743.811707 730.907288,745.774597 726.257874,744.404358 
	C721.021729,742.861206 719.823547,738.454224 720.453735,734.069336 
	C722.921509,716.898865 728.903198,701.257019 741.903809,689.042358 
	C742.225586,688.740051 742.750488,688.653809 743.888428,688.159058 
	C744.839478,700.577759 744.777588,712.577087 742.992920,724.997681 
z"/>
</svg>