<svg xmlns="http://www.w3.org/2000/svg" xmlns:xlink="http://www.w3.org/1999/xlink" width="500" zoomAndPan="magnify" viewBox="0 0 375 374.999991" height="500" preserveAspectRatio="xMidYMid meet" version="1.0"><defs><g/><clipPath id="ccc669fb88"><rect x="0" width="144" y="0" height="262"/></clipPath><clipPath id="463e8b4d45"><rect x="0" width="83" y="0" height="254"/></clipPath><clipPath id="af2f3be3a6"><rect x="0" width="98" y="0" height="245"/></clipPath><clipPath id="43f11b668c"><rect x="0" width="80" y="0" height="273"/></clipPath><clipPath id="ddc1823b27"><rect x="0" width="128" y="0" height="285"/></clipPath></defs><g transform="matrix(1, 0, 0, 1, 150, 7)"><g clip-path="url(#ccc669fb88)"><g fill="#114c18" fill-opacity="1"><g transform="translate(0.719772, 180.389522)"><g><path d="M 18.5625 -121.375 L 50.953125 -121.375 C 60.421875 -121.375 65.15625 -117.328125 65.15625 -109.234375 C 62.539062 -103.078125 59.828125 -99.703125 57.015625 -99.109375 L 12.5 -99.109375 C 10.425781 -99.109375 7.738281 -101.796875 4.4375 -107.171875 C 4.4375 -116.640625 9.144531 -121.375 18.5625 -121.375 Z M 42.890625 -74.84375 C 50.984375 -74.84375 55.03125 -54.601562 55.03125 -14.125 C 52.269531 -6.039062 49.554688 -2 46.890625 -2 L 38.828125 -2 C 32.078125 -2 28.703125 -22.90625 28.703125 -64.71875 C 30.566406 -71.46875 35.296875 -74.84375 42.890625 -74.84375 Z M 42.890625 -74.84375 "/></g></g></g><g fill="#114c18" fill-opacity="1"><g transform="translate(41.498009, 180.389522)"><g><path d="M 44.890625 -107.171875 C 52.972656 -104.410156 57.015625 -99.035156 57.015625 -91.046875 L 57.015625 -72.78125 C 57.460938 -70.113281 58.820312 -68.78125 61.09375 -68.78125 L 85.34375 -70.78125 C 89.382812 -70.78125 93.429688 -66.738281 97.484375 -58.65625 C 97.484375 -50.019531 86.019531 -45.285156 63.09375 -44.453125 L 63.09375 -36.390625 C 63.09375 -24.253906 66.46875 -18.1875 73.21875 -18.1875 C 82.488281 -19.519531 88.550781 -20.878906 91.40625 -22.265625 C 97.570312 -19.648438 100.953125 -16.9375 101.546875 -14.125 L 101.546875 -6.0625 C 101.546875 -1.476562 92.101562 1.894531 73.21875 4.0625 C 55.019531 4.0625 44.222656 -6.039062 40.828125 -26.25 C 40.828125 -38.382812 38.804688 -44.453125 34.765625 -44.453125 L 16.5625 -44.453125 C 8.476562 -44.453125 4.4375 -48.519531 4.4375 -56.65625 L 4.4375 -58.65625 C 4.4375 -64.46875 14.546875 -67.84375 34.765625 -68.78125 L 34.765625 -93.046875 C 34.765625 -100.585938 38.140625 -105.296875 44.890625 -107.171875 Z M 44.890625 -107.171875 "/></g></g></g></g></g><g transform="matrix(1, 0, 0, 1, 234, 121)"><g clip-path="url(#463e8b4d45)"><g fill="#114c18" fill-opacity="1"><g transform="translate(2.518367, 186.053758)"><g><path d="M 50.59375 -6.796875 C 44.644531 -2.203125 38.554688 -0.00390625 32.328125 -0.203125 C 26.097656 -0.398438 20.546875 -2.546875 15.671875 -6.640625 C 10.796875 -10.742188 7.257812 -16.144531 5.0625 -22.84375 C 3.226562 -29.050781 2.347656 -35.65625 2.421875 -42.65625 C 2.492188 -49.664062 3.796875 -56.378906 6.328125 -62.796875 C 8.859375 -69.222656 12.6875 -74.613281 17.8125 -78.96875 C 21.269531 -81.863281 25.382812 -83.894531 30.15625 -85.0625 C 34.9375 -86.226562 39.664062 -86.4375 44.34375 -85.6875 C 49.019531 -84.9375 52.984375 -83.070312 56.234375 -80.09375 C 59.484375 -77.125 61.242188 -72.832031 61.515625 -67.21875 C 63.460938 -62.4375 64.785156 -57.265625 65.484375 -51.703125 C 66.179688 -46.140625 66.15625 -40.570312 65.40625 -35 C 64.664062 -29.425781 63.082031 -24.175781 60.65625 -19.25 C 58.238281 -14.332031 54.882812 -10.179688 50.59375 -6.796875 Z M 43.625 -30.984375 C 44.9375 -31.359375 45.914062 -32.535156 46.5625 -34.515625 C 47.207031 -36.492188 47.640625 -38.769531 47.859375 -41.34375 C 48.078125 -43.925781 48.148438 -46.351562 48.078125 -48.625 C 48.015625 -50.894531 47.914062 -52.390625 47.78125 -53.109375 C 46.71875 -52.265625 45.707031 -51.238281 44.75 -50.03125 C 43.800781 -48.832031 43.035156 -47.632812 42.453125 -46.4375 C 40.203125 -41.75 39 -37.785156 38.84375 -34.546875 C 38.6875 -31.316406 40.28125 -30.128906 43.625 -30.984375 Z M 43.625 -30.984375 "/></g></g></g></g></g><g transform="matrix(1, 0, 0, 1, 154, 130)"><g clip-path="url(#af2f3be3a6)"><g fill="#114c18" fill-opacity="1"><g transform="translate(2.033932, 168.983928)"><g><path d="M 11.015625 -106.03125 L 18.625 -106.078125 C 23.007812 -106.109375 26.898438 -89.734375 30.296875 -56.953125 C 52.410156 -69.734375 66.878906 -76.148438 73.703125 -76.203125 C 77.066406 -75.804688 80.25 -72.660156 83.25 -66.765625 C 83.289062 -60.441406 71.960938 -52.800781 49.265625 -43.84375 L 49.296875 -40.03125 C 52.316406 -35.625 61.191406 -30.007812 75.921875 -23.1875 C 79.734375 -18.320312 81.644531 -14.550781 81.65625 -11.875 C 79.945312 -5.550781 75.5625 -2.363281 68.5 -2.3125 L 66.625 -2.296875 C 62.0625 -2.273438 50.648438 -9.144531 32.390625 -22.90625 L 32.390625 -21.03125 C 32.429688 -15.769531 33.125 -8.832031 34.46875 -0.21875 C 34.476562 2.175781 31.34375 5.976562 25.0625 11.1875 C 14.957031 11.25 9.804688 -3.847656 9.609375 -34.109375 L 3.53125 -96.578125 C 5.9375 -102.304688 8.429688 -105.457031 11.015625 -106.03125 Z M 11.015625 -106.03125 "/></g></g></g></g></g><path stroke-linecap="round" transform="matrix(0.718616, -0.214688, 0.214688, 0.718616, 245.774578, 206.408365)" fill="none" stroke-linejoin="miter" d="M 9.499707 9.499397 L 40.276387 9.502056 " stroke="#114c18" stroke-width="19" stroke-opacity="1" stroke-miterlimit="4"/><g transform="matrix(1, 0, 0, 1, 85, 102)"><g clip-path="url(#43f11b668c)"><g fill="#114c18" fill-opacity="1"><g transform="translate(2.39041, 205.73339)"><g><path d="M 63.5625 -0.609375 C 61.300781 -1.128906 59.5625 -2.410156 58.34375 -4.453125 C 57.132812 -6.503906 56.289062 -8.890625 55.8125 -11.609375 C 55.332031 -14.335938 55.015625 -16.992188 54.859375 -19.578125 C 54.710938 -22.171875 54.632812 -24.265625 54.625 -25.859375 C 51.863281 -21.984375 48.332031 -18.671875 44.03125 -15.921875 C 39.726562 -13.179688 35.222656 -11.425781 30.515625 -10.65625 C 25.804688 -9.894531 21.382812 -10.429688 17.25 -12.265625 C 13.125 -14.097656 9.71875 -17.597656 7.03125 -22.765625 C 4.46875 -28.054688 3.066406 -33.753906 2.828125 -39.859375 C 2.597656 -45.972656 3.320312 -52.054688 5 -58.109375 C 6.6875 -64.160156 8.976562 -69.519531 11.875 -74.1875 C 14.632812 -78.457031 17.992188 -82.265625 21.953125 -85.609375 C 25.921875 -88.960938 30.222656 -91.347656 34.859375 -92.765625 C 39.503906 -94.191406 44.023438 -94.222656 48.421875 -92.859375 C 52.816406 -91.492188 56.820312 -88.296875 60.4375 -83.265625 C 62.582031 -80.359375 64.359375 -77.78125 65.765625 -75.53125 C 67.171875 -73.28125 68.25 -70.894531 69 -68.375 C 69.75 -65.863281 70.203125 -62.679688 70.359375 -58.828125 L 71.78125 -21.390625 C 71.789062 -19.929688 71.867188 -17.9375 72.015625 -15.40625 C 72.171875 -12.882812 72.085938 -10.390625 71.765625 -7.921875 C 71.453125 -5.460938 70.671875 -3.5 69.421875 -2.03125 C 68.171875 -0.570312 66.21875 -0.0976562 63.5625 -0.609375 Z M 37.953125 -45.46875 C 39.546875 -45.476562 41.203125 -46.382812 42.921875 -48.1875 C 44.640625 -50 46.1875 -52.003906 47.5625 -54.203125 C 48.945312 -56.410156 49.835938 -58.109375 50.234375 -59.296875 C 51.535156 -62.234375 51.679688 -64.820312 50.671875 -67.0625 C 49.660156 -69.3125 47.566406 -69.765625 44.390625 -68.421875 C 42.265625 -67.609375 40.210938 -65.734375 38.234375 -62.796875 C 36.265625 -59.867188 34.890625 -57.335938 34.109375 -55.203125 C 33.460938 -53.078125 33.210938 -50.953125 33.359375 -48.828125 C 33.503906 -46.703125 35.035156 -45.582031 37.953125 -45.46875 Z M 37.953125 -45.46875 "/></g></g></g></g></g><g transform="matrix(1, 0, 0, 1, 67, 0)"><g clip-path="url(#ddc1823b27)"><g fill="#114c18" fill-opacity="1"><g transform="translate(10.535938, 193.973962)"><g><path d="M 7.734375 -125.984375 L 16.734375 -126.421875 C 21.921875 -126.671875 27.335938 -107.492188 32.984375 -68.890625 C 58.503906 -85.117188 75.300781 -93.425781 83.375 -93.8125 C 87.382812 -93.507812 91.304688 -89.953125 95.140625 -83.140625 C 95.503906 -75.671875 82.492188 -66.066406 56.109375 -54.328125 L 56.328125 -49.8125 C 60.117188 -44.757812 70.890625 -38.5625 88.640625 -31.21875 C 93.398438 -25.65625 95.859375 -21.289062 96.015625 -18.125 C 94.304688 -10.550781 89.273438 -6.5625 80.921875 -6.15625 L 78.71875 -6.046875 C 73.3125 -5.785156 59.457031 -13.34375 37.15625 -28.71875 L 37.265625 -26.515625 C 37.566406 -20.296875 38.734375 -12.117188 40.765625 -1.984375 C 40.898438 0.859375 37.378906 5.515625 30.203125 11.984375 C 18.253906 12.566406 11.410156 -5.035156 9.671875 -40.828125 L -0.640625 -114.40625 C 1.921875 -121.332031 4.710938 -125.191406 7.734375 -125.984375 Z M 7.734375 -125.984375 "/></g></g></g></g></g></svg>